<svg width="393" height="912" viewBox="0 0 393 912" fill="none" xmlns="http://www.w3.org/2000/svg">
<path d="M186.661 1139.88C186.435 1141.24 189.836 1175.02 189.836 1175.02L191.65 1188.4L180.312 1198.15L179.859 1217.88L176.911 1236.02L178.272 1263.91L186.661 1293.61L189.382 1305.18L199.586 1309.48L237.453 1315.83C237.453 1315.83 287.11 1324 287.337 1324C287.564 1324 300.262 1327.4 300.262 1327.4L356.041 1314.02L371.234 1310.16L390.28 1294.07L384.612 1267.76L371.234 1261.41L344.931 1260.96L321.122 1246.22L324.524 1233.98L302.756 1220.15L288.471 1218.33L278.947 1203.59L255.592 1199.06L245.389 1198.83L246.749 1152.12L186.661 1139.88ZM283.709 607.248L322.256 596.137L327.471 593.416L319.535 533.782L305.477 485.711L290.738 454.647L290.512 380.728L281.895 319.052L268.971 283.906L255.819 261.685L251.511 251.708L264.209 219.057L285.07 224.726L300.262 213.842L307.971 205.225L319.989 180.056L322.029 168.946L327.245 165.318L339.262 136.521L342.663 114.3L334.727 86.183L317.041 59.4268L273.052 43.7812L219.086 52.1709L200.493 57.8396L173.963 107.497L172.149 138.335L185.754 176.202L186.661 182.777L195.958 180.283L195.278 195.248L206.615 192.301L197.092 219.057L164.44 225.859L160.585 230.167L149.021 304.314L228.156 574.823L266.703 609.742L283.709 607.248Z" fill="white"/>
<path d="M272.596 1240.78C266.02 1246.68 258.537 1249.17 251.055 1251.21C250.148 1251.44 248.787 1250.53 247.654 1250.08C248.107 1248.94 248.334 1247.13 249.241 1246.68C251.735 1245.31 254.683 1244.63 257.177 1243.27L267.381 1238.51C269.195 1237.83 271.008 1237.38 273.049 1236.92C273.503 1234.2 274.183 1230.8 274.863 1226.49C271.689 1228.08 269.195 1228.99 266.927 1230.35C264.66 1231.71 263.299 1232.39 261.712 1229.44C260.351 1226.95 258.084 1224.91 256.497 1222.64C255.136 1220.83 254.229 1218.79 253.549 1216.52C253.322 1215.16 253.776 1213.57 254.909 1212.44C258.991 1209.26 263.299 1206.31 268.741 1206.31H278.264C274.863 1201.1 268.288 1199.06 262.392 1201.1C260.805 1201.33 258.991 1201.1 257.63 1200.65C256.497 1200.42 255.363 1199.97 254.229 1199.74C250.148 1198.6 247.654 1201.1 244.933 1203.59C243.345 1204.73 241.531 1205.86 239.491 1206.54C237.45 1207.45 236.543 1209.04 237.903 1211.08C241.985 1216.74 245.84 1222.64 249.921 1228.31C251.508 1230.58 250.375 1235.34 247.427 1236.02C242.212 1237.15 236.77 1237.83 231.328 1238.29C230.421 1238.29 228.607 1236.7 228.607 1236.24C228.834 1234.88 229.741 1233.75 230.874 1233.07C233.822 1232.39 236.77 1231.71 239.717 1231.48C240.851 1231.26 241.985 1231.26 243.799 1231.03C241.531 1226.95 239.264 1223.32 237.45 1219.47C235.636 1215.61 232.688 1212.21 232.915 1207.45C232.915 1205.41 233.822 1203.37 235.636 1202.01C238.357 1199.97 241.078 1197.92 244.026 1196.11C245.159 1195.2 245.613 1194.75 245.159 1193.16C244.479 1190.9 244.479 1188.63 244.479 1186.13V1160.96C233.595 1161.64 222.258 1162.33 212.054 1156.66L211.374 1157.34C211.827 1160.28 212.054 1163.23 212.508 1166.41C213.868 1174.12 215.229 1181.83 216.362 1189.53C216.589 1192.26 216.589 1194.98 215.909 1197.47C215.682 1198.6 214.095 1199.51 213.188 1200.65C212.281 1199.74 211.147 1198.83 210.694 1197.7C210.24 1195.66 209.787 1193.39 209.56 1191.35C208.653 1182.51 207.519 1173.89 206.612 1165.05C206.159 1161.87 206.612 1157.79 205.025 1155.52C203.438 1153.26 199.356 1152.57 196.409 1151.21C194.595 1150.53 192.554 1149.85 190.513 1149.4C192.1 1159.6 193.688 1169.13 195.048 1178.65C195.502 1181.6 195.048 1184.55 195.275 1187.27C195.275 1188.63 195.728 1189.76 196.409 1190.67C197.769 1192.48 199.583 1193.62 200.717 1195.43C201.851 1197.02 202.531 1198.83 200.49 1200.19C198.449 1201.55 197.089 1200.65 195.955 1199.06C194.141 1196.34 192.1 1193.62 190.06 1190.67C187.112 1194.3 184.391 1197.7 181.67 1201.1C181.217 1201.78 181.67 1203.59 182.124 1204.5C184.164 1209.72 184.845 1215.16 184.164 1220.6C183.938 1222.19 183.484 1223.77 182.35 1224.91C180.31 1227.17 179.176 1230.35 179.629 1233.52C180.31 1241.46 181.217 1249.62 181.897 1257.56C182.124 1260.73 182.124 1263.68 184.618 1266.18C185.978 1267.54 187.566 1268.9 188.926 1270.48C189.38 1270.03 189.38 1269.8 189.38 1269.8C189.606 1260.73 189.833 1251.66 189.833 1242.37C189.833 1241.23 188.473 1240.1 188.019 1238.74C185.752 1231.03 185.525 1223.32 189.606 1216.06C191.194 1212.89 193.234 1209.94 195.502 1207.22C197.316 1205.86 199.356 1204.73 201.397 1204.05C201.17 1201.1 203.665 1199.28 206.159 1197.24C206.612 1196.79 208.426 1197.02 208.653 1197.24C209.107 1198.15 209.333 1199.28 209.107 1200.19C207.519 1202.01 205.932 1203.82 204.345 1205.41L221.351 1227.86C222.258 1228.99 223.618 1229.9 224.072 1231.26C224.299 1232.62 224.525 1234.2 224.299 1235.79C222.711 1235.79 220.444 1236.47 219.537 1235.56C214.322 1230.58 210.24 1224.68 207.519 1217.88C206.159 1214.25 204.345 1211.53 200.49 1211.53C199.13 1214.7 197.996 1217.65 196.409 1220.37C195.728 1221.51 193.688 1221.96 193.007 1223.09C191.194 1226.95 191.874 1231.48 194.821 1234.66C206.612 1245.77 220.444 1253.25 236.996 1255.06C239.037 1255.29 241.078 1255.52 243.345 1255.97C244.252 1256.2 244.933 1256.88 245.159 1257.79C245.386 1258.24 244.706 1259.37 244.026 1259.6L235.863 1263.68C238.584 1267.31 242.212 1271.39 245.159 1275.7C247.427 1278.87 249.467 1282.05 251.508 1285.45C252.642 1287.72 251.508 1289.3 248.787 1290.66C253.776 1292.25 258.084 1293.84 262.619 1295.2C265.793 1296.33 268.968 1297.01 272.142 1297.92C275.77 1298.6 279.625 1298.83 283.253 1299.28C285.067 1299.51 287.108 1299.96 286.654 1302.23C286.427 1303.14 284.613 1304.27 283.253 1304.72C275.543 1306.08 268.288 1303.59 261.032 1301.77C255.59 1300.41 250.375 1298.15 245.159 1296.56C242.665 1295.88 240.851 1294.52 241.078 1292.02C241.305 1289.53 244.026 1289.53 246.066 1289.76C246.52 1289.76 246.973 1289.53 247.2 1289.3C245.386 1286.81 243.799 1284.32 241.985 1282.05C239.037 1277.97 236.316 1273.88 233.368 1269.8C230.421 1265.5 225.206 1263.23 219.99 1263.91C212.961 1264.59 206.839 1262.09 200.717 1258.69C198.903 1257.79 197.316 1256.65 195.275 1255.52C194.821 1259.15 195.048 1262.55 193.688 1265.27C192.1 1268.67 193.007 1271.62 193.461 1274.56C193.914 1275.7 194.821 1276.83 195.955 1277.29C206.386 1280.23 216.816 1282.95 227.246 1285.9C228.607 1286.36 231.328 1286.58 230.421 1289.3C229.514 1292.02 227.7 1291.8 225.659 1291.34C217.496 1289.53 209.333 1287.49 201.17 1285.68C199.13 1285.45 197.089 1285.22 195.048 1285.22C193.007 1288.62 191.42 1288.62 188.926 1285.45C189.38 1289.3 190.286 1293.16 190.513 1297.01C190.74 1299.05 192.554 1302.23 188.926 1303.14C185.752 1303.82 185.298 1300.64 184.391 1298.37C183.938 1297.24 183.711 1295.88 183.257 1294.52C180.763 1296.33 178.949 1295.43 176.908 1293.84C175.775 1292.93 174.414 1292.48 173.054 1292.48C170.333 1292.02 168.292 1289.98 168.065 1287.26C167.385 1284.54 167.158 1281.59 167.385 1278.65C167.839 1273.66 168.746 1268.9 169.653 1264.13C169.653 1261.87 171.693 1259.83 173.961 1260.05H174.187C173.734 1255.06 173.054 1250.3 172.827 1245.31C172.373 1239.42 172.827 1233.3 174.414 1227.63C176.455 1221.05 177.589 1213.57 175.094 1206.77C173.28 1201.55 175.321 1198.15 178.269 1194.75C180.99 1191.8 183.938 1189.08 186.659 1186.13C187.112 1185.45 187.339 1184.55 187.112 1183.64C186.432 1175.48 185.525 1167.09 184.845 1158.92C184.618 1155.07 184.845 1151.21 184.845 1146.45L178.949 1146H178.042C175.321 1144.41 172.827 1142.82 170.559 1141.01C169.879 1140.1 169.426 1138.74 169.426 1137.61C169.652 1128.77 170.106 1120.15 170.106 1111.31C170.106 1096.8 170.106 1082.28 169.653 1067.77C169.426 1058.7 167.839 1049.63 167.612 1040.56C167.385 1031.04 167.839 1021.29 168.065 1011.54C168.065 1004.74 168.519 997.707 168.065 990.904C167.612 976.392 166.705 961.88 166.025 947.595C165.571 938.979 165.118 930.363 165.118 921.973C165.118 916.758 166.025 911.543 166.251 906.328C166.478 899.525 166.478 892.949 166.025 886.147C165.571 879.345 164.664 872.996 163.757 866.42C162.397 856.443 161.263 846.466 159.902 836.263C158.315 825.832 156.274 815.629 155.141 805.198C153.78 793.634 153.327 782.07 152.42 770.733C151.966 764.384 151.286 757.808 150.832 751.459C150.606 747.151 149.925 743.069 149.019 738.988C148.338 740.575 147.431 742.162 146.524 743.523C144.71 747.151 141.763 750.325 137.908 752.139C134.507 753.953 131.786 757.354 128.385 759.169C124.303 760.982 119.995 762.57 115.46 763.703C112.512 764.61 109.338 765.517 106.39 766.198C98.4539 767.558 90.5177 768.919 82.5816 769.599C75.7792 770.279 68.9768 770.733 61.9476 768.692C57.6394 767.331 52.651 768.465 47.8893 768.238C44.4881 768.012 41.0869 766.878 37.6857 766.198C34.5112 765.517 31.3367 765.064 28.1623 764.837C17.9586 764.61 11.383 758.715 5.26082 751.459C0.272377 745.564 -0.181124 739.215 0.045623 732.186C0.499117 717.901 0.725864 703.842 1.17936 689.557C1.40611 674.819 1.17935 660.307 1.63285 645.568C1.85959 635.138 3.22008 624.707 3.90032 614.277C4.80731 598.631 5.48756 583.213 6.39455 567.567C6.84805 557.364 7.98177 547.16 8.20852 536.729C8.43527 525.392 8.20851 514.055 8.43526 502.491C8.88876 485.711 9.56901 469.159 10.0225 452.38C10.2492 445.35 9.79576 438.095 10.0225 431.065C10.476 420.862 12.0632 410.885 14.7842 401.135C19.5459 383.222 27.7088 366.669 36.5519 350.57C39.0462 346.035 40.6334 341.047 42.9008 336.512C45.6218 330.843 48.5695 324.948 51.744 319.506C56.0522 311.57 58.3197 302.726 58.0929 293.657L57.4127 236.516C57.4127 228.353 57.1859 220.19 56.9592 212.028C56.5057 195.248 55.8254 178.469 55.3719 161.69C55.1452 146.271 55.3719 130.852 55.3719 115.433C55.3719 104.776 55.1452 93.8922 54.9184 83.0084C54.6917 72.1245 54.9184 61.6941 55.3719 51.037C55.5987 43.1009 56.0522 35.1647 56.7324 27.4553C56.9592 23.3739 58.0929 19.2924 60.1336 15.6645C62.1744 12.0365 65.5756 9.54228 69.4303 8.63529C79.4072 6.36782 89.1573 2.96661 98.9074 0.925884C107.751 -0.661346 115.46 -0.207852 122.716 2.28637C123.623 2.51311 124.53 3.19336 125.21 3.8736C129.972 8.86204 133.146 14.5307 132.466 22.0134C132.239 27.6821 132.466 33.3507 132.919 39.0194C133.146 46.0486 133.146 53.0777 133.373 60.3337C133.826 64.8686 134.053 69.6303 133.6 74.1652C131.786 87.0898 133.373 100.014 134.053 112.939C134.733 124.73 134.96 136.521 135.187 148.312C135.414 158.969 135.64 169.399 135.64 180.056C135.64 187.539 135.414 195.021 135.414 202.504C135.414 214.522 135.867 226.539 135.64 238.557C135.414 251.935 134.28 265.313 134.053 278.691C133.826 285.494 134.507 292.523 134.507 299.325C134.507 303.18 134.733 306.808 134.96 310.663C136.774 307.261 138.815 303.86 140.175 300.232C142.67 293.656 144.937 287.081 146.978 280.278C148.792 274.383 149.926 268.034 151.513 262.139L158.315 236.97C158.769 235.382 158.769 233.795 159.222 232.208C159.449 231.528 160.356 230.848 160.809 230.167C161.49 230.848 162.85 231.528 162.85 232.208C163.077 234.249 162.85 236.289 162.397 238.33C160.583 247.854 158.542 257.377 156.501 266.674C156.274 267.581 156.274 268.488 156.274 270.075C167.158 260.098 180.536 257.83 194.141 256.243C197.089 256.016 199.81 256.243 202.758 256.697C208.88 257.604 215.455 258.057 221.124 260.098C228.153 262.819 233.142 268.714 238.13 274.156L240.398 276.424C242.212 278.691 244.252 280.959 246.066 283.226C247.2 284.587 248.107 286.174 249.468 287.534C251.735 290.255 252.869 293.883 252.642 297.511C252.869 303.18 253.776 308.622 255.363 314.064C258.537 324.721 259.218 336.058 257.63 346.942C257.63 347.622 257.404 348.303 257.177 348.529C253.322 351.25 252.642 355.105 252.869 359.186C253.095 365.762 253.549 372.111 254.002 378.687C254.683 388.664 254.002 398.64 251.962 408.391C251.055 412.472 249.014 413.606 246.52 411.565C245.84 411.112 245.613 409.978 245.159 409.071C244.706 408.164 244.026 407.484 243.345 406.577L242.212 406.803L240.171 419.048C238.13 430.612 236.089 441.949 234.275 453.513C233.142 460.769 232.235 467.798 230.647 474.828C229.741 478.455 228.607 481.857 227.02 485.258C230.194 494.555 233.142 504.531 236.77 514.508C240.171 524.032 244.026 533.328 247.427 542.625C251.735 554.189 258.991 564.393 262.392 576.184C263.979 581.399 266.474 586.16 268.288 591.376C268.741 592.963 268.968 594.777 269.195 596.591C269.421 597.498 269.648 598.178 270.102 598.858C271.915 599.312 274.183 599.539 274.183 599.992C274.183 601.579 273.956 603.393 273.503 604.754C274.636 604.3 275.77 603.62 276.904 602.94C281.212 599.992 286.201 598.178 291.416 597.725C299.352 596.818 307.061 595.004 314.997 593.643C317.945 593.19 320.666 592.736 323.387 592.509C322.707 584.8 322.027 577.317 320.893 569.608C319.759 560.084 318.399 550.561 316.811 540.811C315.678 532.875 314.544 524.939 312.73 517.003C311.143 510.2 308.195 503.851 306.381 497.049C303.887 488.206 299.125 480.496 295.27 472.333C290.736 463.037 288.241 453.06 287.561 442.629C286.427 426.53 285.52 410.431 284.387 394.332C283.706 385.036 282.346 375.966 281.439 366.669C280.078 354.425 279.171 341.954 277.357 329.936C274.863 313.157 271.915 296.151 263.072 281.185C262.619 280.278 262.846 279.145 262.846 278.011C263.753 278.464 265.34 278.464 265.793 279.145C268.514 283.226 270.782 287.534 273.276 291.843C278.038 300.232 280.078 309.756 281.666 319.279C284.16 332.657 286.201 346.035 288.015 359.413C289.602 370.524 291.416 381.408 292.549 392.518C293.456 402.495 293.23 412.472 294.137 422.449C294.817 431.519 295.951 440.815 297.084 449.885C298.218 461.449 304.114 471.2 308.875 481.176C311.143 486.165 312.957 491.38 314.544 496.822C317.038 504.985 319.532 513.148 321.346 521.311C323.387 530.834 324.974 540.584 326.562 550.334C327.922 559.177 328.376 568.021 329.509 576.864C329.736 580.038 330.19 583.213 331.097 586.387C331.777 589.562 331.777 592.736 330.643 595.911C330.416 596.818 328.376 597.725 327.015 597.951C322.707 598.632 318.625 598.858 314.317 599.765C313.41 600.219 312.73 600.899 312.503 602.033C312.277 620.172 312.05 638.312 312.05 656.679C312.277 660.08 312.957 663.481 314.09 666.656C316.131 673.231 317.038 680.034 316.585 687.063C315.904 699.307 315.451 711.552 314.544 723.796C314.09 731.052 312.957 738.535 312.276 745.79C311.37 755.994 310.463 766.198 309.556 776.175C308.649 787.965 307.742 799.529 306.835 811.32C305.928 823.111 304.794 834.449 303.66 845.786C302.526 858.03 301.619 870.501 300.486 882.746C299.805 891.362 298.672 899.752 297.765 908.368C297.084 914.49 296.858 920.613 296.404 926.508C295.497 936.485 294.137 946.462 293.456 956.665C293.003 963.468 292.776 970.27 292.549 977.073C292.776 982.288 292.096 987.503 290.736 992.491C290.055 995.893 289.829 999.294 290.282 1002.92C290.282 1012.67 290.282 1022.65 290.055 1032.4C290.055 1036.25 288.922 1040.11 288.695 1044.19C288.241 1048.95 288.015 1053.49 288.015 1058.25L287.334 1112.21C287.108 1122.87 286.881 1133.75 286.654 1144.64C286.654 1148.49 285.294 1149.17 281.666 1150.08C278.491 1151.21 275.543 1152.57 272.822 1154.39C268.288 1156.88 264.206 1158.92 258.764 1158.7C255.363 1158.92 251.962 1159.6 248.787 1160.74C249.241 1171.39 249.921 1182.28 250.374 1193.62C255.136 1194.3 259.898 1194.52 264.66 1194.3C271.235 1193.84 275.543 1197.47 280.305 1200.87C284.613 1204.05 288.015 1208.35 290.055 1213.34C291.189 1216.29 294.363 1215.84 296.177 1215.61C302.3 1214.48 307.515 1217.2 312.276 1219.92C315.678 1221.96 318.625 1224.23 321.573 1226.72C326.788 1231.03 327.242 1236.92 322.707 1242.82C328.602 1245.99 334.498 1249.62 340.393 1252.57C344.475 1254.38 348.556 1255.74 352.864 1257.11C355.812 1258.01 358.079 1260.73 358.306 1263.91C358.533 1273.43 352.864 1280.91 342.207 1280.69C339.259 1280.69 336.312 1280.46 333.137 1280.01C332.003 1279.78 331.323 1277.97 330.19 1276.83C331.323 1276.15 332.684 1275.7 333.818 1275.25C337.672 1274.79 341.527 1275.02 345.155 1274.56C351.05 1273.88 352.184 1269.12 353.318 1264.81C353.544 1264.36 352.411 1263.23 351.504 1262.77C349.917 1262.09 348.103 1261.87 346.742 1261.19C343.568 1259.6 339.94 1259.6 336.765 1261.19C332.457 1262.77 328.149 1263.91 323.614 1264.13C320.439 1264.36 317.492 1262.09 317.038 1258.92V1258.24C317.492 1256.65 317.945 1255.06 318.852 1253.7L310.689 1254.61C307.061 1255.29 303.433 1253.02 302.753 1249.17C302.753 1248.72 302.526 1248.04 302.526 1247.58C301.166 1247.81 300.032 1247.58 298.672 1247.36C297.765 1246.9 297.311 1245.31 296.177 1244.41C295.951 1248.26 296.404 1252.34 292.096 1253.48C288.468 1254.16 284.84 1254.61 280.985 1254.61C281.666 1258.47 282.119 1262.77 282.799 1266.86C282.799 1267.31 283.933 1267.76 284.16 1268.22C284.84 1269.12 285.974 1270.03 285.974 1270.71C285.974 1271.39 284.84 1272.52 283.933 1273.2L278.491 1277.29C274.863 1280.23 271.462 1283.63 267.834 1286.58C266.7 1287.26 265.567 1287.26 264.433 1286.58C263.753 1285.68 263.526 1284.32 263.753 1283.18C264.206 1282.05 264.886 1280.91 266.02 1280.23C273.729 1273.88 273.503 1273.88 272.596 1264.36C271.915 1257.79 272.142 1251.21 271.689 1244.86C273.276 1243.5 273.049 1242.14 272.596 1240.78ZM245.613 402.042C246.066 396.827 246.747 391.838 246.747 386.623C246.747 371.884 246.52 357.146 246.293 342.634C246.293 335.832 245.613 329.483 240.398 324.041C235.636 319.279 232.235 313.384 227.246 308.849C223.165 304.994 218.403 301.819 213.415 299.325C209.107 297.284 204.572 295.924 199.81 295.244C195.955 294.79 192.1 294.79 188.473 295.697C184.391 296.604 180.536 298.645 176.228 299.779C168.746 301.366 162.397 306.354 159.222 313.157C157.408 317.465 155.141 321.546 152.646 325.401C149.245 329.709 145.617 333.791 145.391 339.459C145.164 341.954 144.937 344.448 144.257 346.715C143.123 352.838 141.763 359.186 140.629 365.309C139.042 373.018 138.135 380.954 135.867 388.664C134.96 392.065 133.826 396.146 130.199 398.64C129.745 399.094 130.199 401.135 130.425 402.268C130.652 403.402 131.786 404.536 131.786 405.67C132.239 412.926 132.693 420.181 132.466 427.437C132.239 438.548 132.919 449.659 134.96 460.769C136.774 471.2 137.908 481.63 139.268 491.834C139.949 497.275 140.402 502.491 140.856 508.613C144.03 501.584 146.524 495.008 149.699 488.659C155.594 476.415 161.943 464.397 167.839 452.153C169.653 448.978 171.013 445.35 171.693 441.722C172.827 431.746 173.507 421.769 174.414 411.792C174.868 407.937 175.321 403.856 175.775 399.547C174.868 399.774 174.187 400.001 173.28 400.228C169.879 402.268 166.478 404.309 163.077 406.577C161.263 407.71 159.676 409.298 156.955 408.617C154.46 408.164 152.646 405.896 153.1 403.175C153.1 401.135 152.873 399.094 152.873 397.053L153.553 370.751C153.553 369.617 154.687 368.256 155.367 367.123C156.274 368.256 156.728 369.39 157.181 370.751C157.408 374.379 157.635 377.78 157.635 381.408V398.64L163.077 395.92C168.972 391.838 175.775 389.571 182.804 389.117C187.112 388.664 191.42 388.664 195.728 388.89C201.397 389.117 207.066 389.571 212.734 390.704C218.857 392.292 224.752 394.332 230.421 396.6C236.089 398.414 240.624 400.228 245.613 402.042ZM233.368 620.626C233.142 619.946 232.915 619.266 232.688 618.812C228.607 611.103 224.299 603.393 220.444 595.457C215.909 585.934 212.054 576.184 207.519 566.66C202.758 556.457 197.542 546.48 192.781 536.276C187.339 524.258 182.124 511.787 176.908 499.543C175.548 496.369 174.641 493.194 173.507 490.02H172.6C168.292 499.09 164.211 508.386 159.676 517.456C157.181 522.898 154.007 528.34 150.379 533.102C147.205 536.73 145.617 541.038 145.391 545.799C145.391 558.044 146.071 570.288 146.298 582.532C146.524 583.213 146.751 583.893 147.205 584.573C150.379 588.428 153.553 592.283 156.955 596.137C159.902 599.538 162.85 602.713 165.571 606.114C166.478 607.701 166.932 609.515 166.251 611.103C165.118 612.69 162.85 612.69 161.263 610.876C159.902 609.289 158.088 607.928 156.728 606.114L141.082 585.027C139.722 583.666 138.815 582.306 137.908 580.719C137.454 578.905 137.228 576.864 137.454 574.823C136.774 575.503 136.321 576.41 136.094 577.317C136.094 585.707 134.053 593.87 136.547 602.486C138.588 609.515 138.135 617.452 138.588 624.934L140.629 662.347C141.082 670.284 141.309 678.22 141.536 685.476C146.298 688.197 148.565 685.476 150.606 682.528C151.286 681.394 152.42 680.714 153.327 679.58C157.408 674.138 162.623 669.15 163.984 661.894C164.437 659.173 166.025 656.679 168.745 655.545C171.92 654.185 174.641 652.597 177.815 651.464C188.926 647.836 198.449 641.487 208.426 635.818C217.043 631.51 224.979 626.068 233.368 620.626ZM181.217 397.96C180.763 409.524 180.31 420.635 180.083 431.746C180.083 444.443 180.31 456.915 180.536 469.612C180.536 476.188 181.897 482.764 178.496 488.886C178.269 489.339 178.496 490.02 178.722 490.473C179.629 492.514 180.31 494.555 181.217 496.822C183.938 502.944 186.205 509.293 189.153 515.415C191.874 521.084 195.048 526.299 197.996 531.741C201.397 538.09 205.025 544.212 207.973 550.561C213.188 561.672 217.723 572.782 223.165 583.893C228.153 594.097 233.595 604.073 238.584 614.05C240.851 618.585 243.119 623.347 245.386 627.882L246.747 630.83C247.654 630.149 248.334 629.469 249.241 628.562C254.909 620.626 260.578 612.463 266.247 604.527C266.7 603.62 266.7 602.713 266.247 602.033C264.433 597.498 262.619 592.963 260.805 588.655C257.404 580.492 253.776 572.556 250.374 564.393C244.706 551.241 238.81 538.317 233.822 524.939C231.328 518.136 230.194 510.88 228.153 503.851C225.432 495.235 222.258 486.618 219.537 478.002C219.31 477.322 220.897 475.508 221.124 475.508C223.392 476.188 223.165 474.828 223.618 473.467C224.752 467.118 225.432 460.769 226.793 454.42C230.194 439.001 233.595 423.583 237.223 408.164C237.677 405.896 237.677 404.536 234.729 404.082C231.101 403.402 227.473 402.495 223.845 401.135C210.24 395.466 195.728 396.373 181.217 397.96ZM98.9074 582.986H98.0004C98.0004 589.788 98.2271 596.364 98.0004 603.166C97.3202 616.771 96.8667 630.149 95.5062 643.754C94.3725 655.999 94.1457 668.243 94.5992 680.487C94.5992 682.528 95.0527 684.795 97.5469 684.569C100.041 684.342 100.268 682.301 100.268 680.034C100.268 670.737 100.495 661.214 100.948 651.917C101.855 635.591 103.442 619.492 104.349 603.166C104.803 594.777 104.349 586.387 104.576 577.997C104.576 567.567 104.803 557.137 105.03 546.706C105.256 533.102 105.483 519.723 105.483 506.119V461.449C105.483 455.554 105.71 449.432 105.71 443.31C105.71 441.722 105.483 439.682 103.442 439.908C102.762 439.908 101.855 442.403 101.855 443.763C101.628 448.525 101.628 453.06 101.402 457.821C100.948 470.293 100.041 482.764 99.8144 495.235C99.5876 502.717 100.041 510.427 100.041 517.909C99.8144 525.619 99.3609 533.555 99.1341 541.264C98.9074 547.613 98.9074 553.962 98.9074 560.311V582.986ZM105.483 87.5433V65.3221C105.483 64.4151 104.576 63.7349 103.896 62.8279C103.216 63.7349 102.762 64.4151 102.309 65.3221C102.082 65.5488 102.309 66.2291 102.309 66.6826C102.082 74.6187 101.855 82.5549 102.082 90.491C102.535 106.363 102.989 122.236 103.669 138.335C104.576 154.887 106.163 171.44 106.844 187.992C107.524 201.597 107.751 215.429 107.977 229.26L108.658 252.389C108.658 260.325 108.884 268.488 108.431 276.424C108.204 281.185 107.297 285.72 106.844 290.482C106.844 291.389 107.751 292.976 108.204 292.976C109.338 292.976 110.472 292.523 111.379 291.616C112.059 290.709 112.512 289.802 112.512 288.668C113.192 281.185 114.326 273.703 114.326 266.22C114.326 258.737 113.646 251.028 113.419 243.319C113.192 230.621 113.419 217.923 113.192 205.225C112.966 194.795 112.285 184.591 111.605 174.161C110.698 160.102 109.111 145.817 108.204 131.759L105.483 87.5433ZM112.739 325.628C109.111 324.721 108.658 326.988 108.204 329.029C107.07 336.738 105.71 344.221 104.803 351.931C102.762 370.524 100.721 389.117 98.9074 407.937C98.6807 409.978 97.3202 413.379 100.948 413.606C104.349 414.059 104.349 410.658 105.03 408.391V407.71C105.937 396.146 106.617 384.582 107.524 373.018C108.431 361.454 109.791 350.343 110.925 339.006C111.605 334.471 112.285 330.163 112.739 325.628ZM257.404 1217.2C259.671 1219.69 261.939 1221.96 264.433 1224.23C265.113 1224.68 266.247 1224.91 267.154 1224.45C272.369 1222.41 277.584 1220.37 282.799 1218.1C284.387 1217.42 286.427 1216.52 285.52 1214.25C284.84 1211.98 283.706 1210.17 280.759 1210.85C279.171 1211.08 277.811 1211.08 276.224 1211.08C269.648 1211.3 263.072 1211.3 257.404 1217.2ZM118.181 745.79L121.582 742.162C120.675 741.482 119.768 740.575 118.861 739.668C118.181 739.215 117.727 738.761 117.501 738.081C116.367 735.36 115.006 732.639 113.873 729.691L107.07 710.645C106.617 709.738 105.256 709.057 104.123 708.15C103.669 709.511 102.535 710.871 102.989 712.005C105.937 721.755 109.338 731.505 112.512 741.029C112.966 743.75 115.46 745.79 118.181 745.79ZM183.484 1291.57L184.391 1290.89C184.164 1289.08 184.164 1287.49 184.391 1285.68C184.618 1282.95 185.071 1280.46 186.205 1277.97C187.112 1276.61 186.885 1274.79 185.752 1273.88L182.35 1269.12C181.217 1267.31 178.042 1265.95 177.135 1267.08C174.868 1269.8 173.28 1281.37 175.321 1284.09C177.815 1287.04 180.536 1289.3 183.484 1291.57ZM104.576 42.4206C104.803 42.6474 105.256 44.0079 105.71 43.7811C106.844 43.7811 108.204 43.1009 108.658 42.4206C110.018 38.5659 111.152 34.7112 112.059 30.8565C113.646 24.9611 114.78 18.6122 119.995 14.304C120.902 13.6237 121.129 12.2632 121.582 11.3563C120.222 11.3563 118.408 10.676 117.501 11.3563C115.233 12.9435 113.192 14.7575 111.605 17.2517C109.338 21.5599 107.751 25.8681 106.39 30.6298C105.483 34.4845 104.803 38.3392 104.576 42.4206ZM221.804 1258.01C212.054 1255.06 204.118 1249.17 196.182 1242.37C196.409 1245.77 195.275 1248.72 198.223 1250.3L205.705 1254.38C210.694 1256.88 215.682 1258.92 221.804 1258.01ZM311.823 1237.83C314.997 1242.37 319.759 1241.01 323.16 1233.98L319.986 1231.26L311.823 1237.83ZM287.561 1244.41C287.108 1239.65 286.427 1234.88 285.974 1229.22C284.84 1230.58 283.48 1231.26 283.48 1231.94C283.253 1236.02 283.48 1240.1 283.48 1244.41H287.561ZM296.404 1239.42L301.393 1236.24C299.125 1234.2 296.858 1232.39 294.59 1230.58L294.137 1231.03L296.404 1239.42ZM312.957 1230.8L301.619 1224L301.166 1224.68L310.689 1232.84L312.957 1230.8ZM336.312 1257.56C331.777 1253.48 328.376 1258.24 324.521 1258.01C324.521 1258.47 324.521 1258.69 324.748 1259.15L336.312 1257.56Z" fill="black"/>
<path d="M200.267 197.969C199.36 198.196 198.453 198.649 197.546 198.876C193.691 200.917 190.744 199.33 190.744 195.021V185.271C189.61 186.405 188.476 187.312 187.343 188.446C185.302 189.806 184.168 188.899 183.488 186.632C181.901 179.376 180.54 171.893 178.499 164.864C175.778 155.567 171.924 146.497 169.883 136.974C168.522 130.852 168.523 124.503 169.656 118.381C171.47 108.177 174.418 97.9736 178.273 88.2234C182.581 78.9268 188.25 70.3104 194.825 62.3743C198.68 57.3858 205.256 55.3451 211.831 55.1184C212.965 54.8916 214.099 55.7986 214.099 56.9323C214.099 57.6126 213.872 58.5196 213.192 58.9731C212.285 59.88 211.378 60.3335 210.244 60.787C202.761 63.508 196.639 69.1767 193.238 76.2058C190.744 80.9675 187.343 85.2757 185.302 90.2642C182.581 96.1596 180.54 102.282 179.18 108.404C177.592 116.34 176.685 124.503 176.685 132.666C176.685 137.881 179.18 142.87 180.54 148.085C183.034 157.381 185.755 166.678 188.476 176.428C189.61 174.614 190.517 172.573 191.651 170.759C191.877 170.079 192.331 169.626 192.784 169.172C195.959 167.131 195.279 164.41 194.145 161.463C191.651 154.887 192.331 147.631 195.959 141.736C197.773 139.015 199.814 136.521 202.081 134.026C204.349 131.759 207.977 131.305 210.697 133.119C212.738 134.48 213.872 137.428 215.232 139.695C215.459 140.149 214.552 141.963 213.872 142.189C212.965 142.189 211.831 141.736 211.378 140.829C208.657 136.294 206.616 136.067 203.442 140.149C198.226 146.497 197.546 155.341 201.401 162.597C202.308 163.73 203.668 164.411 205.029 164.637C207.296 165.091 209.337 165.544 208.43 168.719C207.977 170.986 205.709 172.573 203.442 171.893C201.628 171.44 199.814 171.213 198 170.533C195.732 173.254 194.825 176.882 195.732 180.51C196.412 183.911 196.866 187.539 197.093 190.94C199.587 189.806 202.081 188.899 204.575 188.219C208.203 187.765 208.884 189.579 207.75 192.981C205.482 199.103 203.895 205.452 201.854 211.574C200.947 214.295 199.814 217.243 198.68 220.417C217.727 226.766 233.826 238.784 248.791 252.388C251.285 241.731 256.954 227.219 261.942 220.19C261.489 219.964 260.809 219.737 260.355 219.51C258.541 219.057 256.954 217.696 257.634 215.882C258.541 214.748 259.675 214.068 261.262 214.068C264.21 214.522 267.158 215.202 269.879 216.336C275.547 218.15 281.216 219.964 287.111 221.778C290.286 218.15 293.46 214.522 296.861 211.12C297.542 210.44 299.356 210.44 300.489 210.213C300.489 211.574 300.716 213.161 300.263 214.068C297.088 218.603 293.687 222.685 290.513 227.219C288.925 229.487 287.111 229.033 285.071 227.673C283.483 226.766 281.896 226.086 280.082 225.632C275.547 224.272 271.012 222.685 266.024 221.324C264.663 224.952 262.849 228.58 261.716 232.208C259.675 239.01 257.861 246.039 256.047 253.069C255.367 256.243 255.14 258.964 258.541 261.232C259.448 261.685 259.675 263.499 260.128 264.86C259.448 265.313 258.768 265.767 257.861 265.993C257.181 265.993 256.5 265.54 256.047 265.086C250.605 260.551 245.163 256.016 239.494 251.708C230.878 245.133 222.488 238.103 212.511 233.568C204.802 230.167 197.319 225.632 188.476 226.539C185.302 226.766 182.354 227.9 179.406 228.353C175.325 229.033 171.47 229.714 167.389 230.394C165.121 230.847 163.307 230.167 163.081 228.126C163.307 226.539 164.441 225.179 165.802 224.499C174.191 222.458 182.581 220.871 190.97 219.283C191.651 219.057 192.331 218.83 192.784 218.15C194.825 212.481 196.866 207.039 198.907 201.37C199.814 200.463 199.814 199.33 200.267 197.969Z" fill="black"/>
<path d="M324.747 168.039C322.707 175.294 321.119 182.324 318.852 189.353C316.358 195.928 312.276 201.824 307.061 206.812C305.701 208.173 303.66 210.44 301.846 208.4C300.032 206.359 302.299 204.772 303.433 203.184C310.236 195.475 315.224 186.178 317.718 176.201C318.625 172.347 319.305 168.719 320.212 164.864C320.439 164.184 321.346 163.504 321.8 162.823L324.521 165.318C324.974 164.411 325.428 163.05 325.881 161.463C321.346 160.102 322.933 156.474 322.707 153.527C322.707 152.393 322.933 151.486 322.933 150.352C323.614 144.23 319.079 142.189 314.77 140.149C311.823 138.788 308.648 138.335 305.701 137.201C304.567 136.747 304.113 135.16 303.206 134.026C304.567 133.573 305.927 132.213 307.288 132.439C313.183 133.346 318.625 135.614 323.16 139.242C324.521 125.183 321.346 111.805 318.625 97.7469C317.491 101.602 316.131 105.456 314.317 109.311C309.102 119.288 302.526 127.904 291.869 132.893C280.985 137.881 269.874 143.096 258.991 148.085C256.27 148.992 253.549 149.672 250.828 149.672C250.148 149.672 248.787 148.312 248.56 147.405C248.334 145.817 248.56 144.457 248.787 142.87C243.118 147.858 237.223 152.847 231.781 157.835C229.06 160.329 226.793 163.05 224.072 165.544C223.165 166.678 221.351 166.905 219.99 165.771C219.31 165.318 219.083 164.637 219.083 163.73C218.403 160.102 217.949 156.474 217.949 152.847C217.723 145.137 217.723 137.428 217.723 129.718C217.723 128.131 217.949 126.544 218.176 124.957C218.403 124.276 219.31 123.143 219.763 123.369C220.67 123.596 221.351 124.276 221.804 124.957C222.031 126.544 222.258 128.131 222.258 129.718C222.711 138.108 223.391 146.498 224.072 155.794C229.967 151.033 234.955 146.951 240.171 142.87C245.386 138.788 250.374 134.707 255.589 130.852C256.27 130.399 257.63 130.625 258.764 130.625C258.764 131.759 258.764 132.893 258.537 134.026C257.403 136.747 256.043 139.242 254.909 141.963L255.816 142.643C260.578 140.375 265.34 138.108 270.328 136.067C272.142 135.16 273.956 134.48 275.997 133.573C285.067 130.172 293.91 126.09 300.712 119.061C308.195 111.352 314.544 102.509 314.77 90.9445C314.77 89.8108 315.677 88.677 316.131 87.5433L318.625 89.8108C324.067 95.026 324.067 102.282 325.881 108.858C329.282 120.195 330.416 132.213 329.282 144.003C329.056 147.631 329.282 151.486 329.282 154.887C334.951 146.498 338.352 136.747 339.259 126.544C339.939 120.648 340.166 114.753 339.713 109.084C338.806 101.375 336.538 93.8922 332.91 87.0898C332.683 85.9561 332.457 84.8223 332.684 83.6886C333.817 84.1421 335.858 84.1421 336.085 85.0491C339.259 91.1713 341.98 97.5202 344.248 103.869C349.009 120.195 345.381 135.84 338.806 150.806C335.858 156.474 332.684 161.916 329.282 167.132C327.695 169.172 326.335 169.399 324.747 168.039ZM227.7 1318.55C220.897 1318.1 214.095 1317.65 207.519 1317.19C204.118 1316.97 202.304 1314.93 200.263 1312.66C199.129 1311.52 197.769 1310.62 196.408 1310.16C195.275 1309.48 193.687 1309.48 192.78 1308.8C191.873 1308.12 192.1 1306.76 191.647 1305.63C192.554 1305.4 193.461 1305.18 194.368 1305.18C195.501 1305.18 196.408 1305.63 197.542 1305.63C200.717 1305.86 203.891 1305.4 206.612 1308.12C207.746 1309.26 210.693 1308.58 212.734 1308.8C220.67 1309.71 228.607 1310.62 236.543 1311.75C240.171 1312.21 243.572 1313.79 247.2 1314.47C253.549 1316.06 260.124 1317.65 266.473 1319.01C270.555 1319.69 274.636 1319.91 278.944 1320.14C281.665 1320.14 284.386 1320.37 286.881 1320.82C288.014 1321.05 288.695 1322.41 289.602 1323.32C288.695 1324 287.788 1325.36 286.881 1325.36C283.253 1325.81 279.625 1325.81 275.997 1326.04C261.258 1326.72 247.653 1321.5 233.368 1319.23C231.554 1318.78 229.74 1318.55 227.7 1318.55ZM255.363 39.9264C262.619 40.8334 269.875 41.9671 276.904 42.8741C284.613 43.7811 292.322 45.8218 299.578 48.9963C307.288 52.6242 315.224 56.2522 320.212 63.7348C321.119 64.6418 321.8 65.7756 322.253 67.1361C322.48 68.043 321.8 69.1768 321.8 70.3105C320.893 69.857 319.305 69.857 318.852 69.1768C312.956 60.5604 304.113 56.4789 294.817 52.851C286.881 49.9033 278.491 49.4498 270.328 48.316C265.793 47.409 261.258 47.1823 256.496 47.1823C245.386 48.0893 234.275 49.4498 224.752 55.7987C223.165 56.9324 221.351 57.6127 219.537 58.2929C218.403 58.5197 217.269 58.0662 216.362 57.3859C216.135 56.2522 216.362 55.1185 217.042 54.4382C222.484 49.4498 229.06 45.8218 236.316 44.0078C242.438 42.1939 248.787 41.0601 255.363 39.9264ZM304.567 1319.69C311.369 1318.55 317.945 1317.65 324.747 1316.51C332.684 1314.93 340.62 1313.34 348.329 1311.52C350.37 1311.07 351.957 1309.94 353.998 1309.48C355.131 1309.26 356.492 1309.48 357.626 1309.71C357.172 1311.07 357.172 1313.11 356.265 1313.57C352.864 1315.83 349.236 1317.42 345.608 1318.55C332.91 1321.5 320.212 1324.22 307.288 1326.72C305.02 1327.17 302.753 1327.17 300.485 1326.72C297.991 1326.49 295.95 1325.13 296.177 1322.64C296.404 1320.59 298.218 1319.01 300.259 1319.23H300.485C301.846 1319.23 302.98 1319.23 304.34 1319.01L304.567 1319.69ZM305.02 1308.58C302.526 1308.12 299.125 1307.67 295.724 1306.99C293.456 1306.54 291.869 1305.18 292.549 1302.68C293.229 1300.87 295.27 1299.73 297.084 1300.41H297.311C307.515 1302.91 317.491 1300.64 327.695 1299.96C335.404 1299.73 343.114 1298.6 350.597 1296.79C351.05 1296.79 351.504 1296.79 351.73 1297.01C353.091 1297.69 354.678 1298.37 356.038 1299.05C354.905 1299.96 353.544 1300.87 352.184 1301.55C337.218 1306.54 321.573 1306.76 305.02 1308.58ZM381.434 1267.76C383.702 1265.04 385.062 1265.04 386.876 1267.99C390.731 1273.66 392.771 1280.23 392.998 1287.04C392.998 1290.44 392.545 1293.84 391.638 1297.24C391.411 1298.15 390.731 1298.83 390.051 1299.51C388.237 1301.32 386.423 1302.68 384.382 1304.04C381.207 1305.86 378.033 1307.22 374.632 1308.8C373.725 1309.26 372.364 1309.03 371.457 1309.71C369.87 1310.62 368.056 1311.98 367.149 1309.71C366.922 1307.9 367.829 1305.86 369.19 1304.72C371.23 1303.59 373.271 1302.91 375.539 1302.68C380.3 1301.32 384.155 1298.15 386.423 1293.84C387.33 1291.34 387.556 1288.85 387.103 1286.36C386.876 1279.55 385.062 1273.2 381.434 1267.76Z" fill="black"/>
<path d="M380.976 1270.03C378.709 1278.19 379.389 1286.81 373.267 1293.16C372.36 1294.06 371.453 1294.97 370.319 1295.65C368.959 1296.56 366.918 1297.69 365.784 1295.65C365.331 1294.06 365.557 1292.25 366.691 1290.89C369.866 1287.72 372.133 1283.86 373.494 1279.78C374.401 1276.61 375.081 1273.2 375.988 1270.26C376.441 1269.12 377.802 1268.22 378.709 1267.31L380.976 1270.03ZM315.446 1282.5C307.964 1281.82 300.708 1281.37 293.225 1280.69C291.411 1280.46 289.37 1278.87 290.051 1276.61C290.277 1275.7 292.772 1275.24 294.132 1275.24C301.615 1276.15 309.097 1277.06 316.807 1277.97C317.714 1277.97 318.848 1277.97 319.755 1278.19C320.661 1278.65 321.342 1279.33 322.249 1280.01C321.342 1280.69 320.661 1281.59 319.755 1281.59C318.394 1281.82 317.034 1281.82 315.446 1281.59V1282.5ZM292.318 180.283C291.638 179.829 291.184 179.376 290.731 178.922C290.504 178.242 290.504 177.335 290.731 176.655C291.184 175.974 291.865 175.294 292.545 174.841L297.987 170.079C298.894 169.399 300.254 168.719 300.934 169.172C301.841 169.852 302.295 170.986 302.295 172.12C301.841 175.974 296.626 180.283 292.318 180.283ZM360.342 1259.83C365.104 1258.47 370.319 1258.92 374.854 1260.73C375.761 1261.19 376.215 1263.23 376.668 1264.59C376.668 1265.04 376.215 1265.72 375.761 1265.95C375.308 1266.17 374.627 1265.72 373.947 1265.72C372.36 1265.04 370.773 1264.36 369.185 1263.91C367.145 1263.45 364.877 1263.68 362.836 1263.23C361.703 1262.77 360.569 1262.09 359.662 1261.41C359.889 1260.96 360.115 1260.28 360.342 1259.83ZM306.376 1258.01C306.15 1260.96 305.469 1263.91 305.016 1266.63C304.562 1267.99 303.655 1269.35 302.522 1270.48C301.841 1270.94 300.934 1270.94 300.254 1270.48C299.801 1270.03 299.801 1268.9 299.801 1268.22C300.481 1265.04 300.934 1261.64 301.841 1258.47C302.295 1256.88 302.068 1254.16 304.562 1254.84C305.469 1255.06 305.923 1257.33 306.376 1258.01ZM276.673 199.329C276.446 196.382 277.806 195.248 280.301 195.475C283.248 195.475 286.196 195.928 288.917 196.382C289.597 196.608 290.958 197.969 290.958 198.422C290.504 199.556 289.597 200.917 288.69 201.143C284.609 201.37 280.3 200.917 276.673 199.329ZM302.975 151.259C299.574 151.259 298.44 149.672 298.44 147.631C298.44 145.59 299.121 143.55 301.841 143.323C304.109 143.55 305.696 145.364 305.696 147.631C305.469 149.899 304.336 151.259 302.975 151.259Z" fill="black"/>
<path d="M245.608 402.042C240.62 400.228 236.085 398.414 231.323 396.827C225.428 394.559 219.532 392.519 213.637 390.931C207.968 389.798 202.3 389.344 196.631 389.117C192.323 388.891 188.015 388.891 183.706 389.344C176.677 389.798 169.648 392.065 163.979 396.146C162.165 397.28 160.351 398.187 158.537 398.867V381.635C158.537 378.007 158.537 374.606 158.084 370.978C157.63 369.617 157.177 368.483 156.27 367.35C155.59 368.483 154.456 369.844 154.456 370.978C154.003 379.821 153.776 388.437 153.776 397.28C153.776 399.321 154.229 401.362 154.002 403.402C153.549 405.897 155.363 408.391 157.857 408.844C160.578 409.525 162.165 407.937 163.979 406.804C167.381 404.763 170.782 402.495 174.183 400.455C174.863 400.228 175.77 399.774 176.677 399.774C176.224 404.083 175.77 407.937 175.317 412.019C174.41 421.996 173.956 431.973 172.596 441.949C171.916 445.577 170.555 448.979 168.741 452.38C162.846 464.624 156.497 476.642 150.601 488.886C147.427 495.235 144.933 501.811 141.758 508.84C141.305 502.944 140.851 497.502 140.171 492.061C138.81 481.63 137.677 471.2 135.863 460.996C134.049 450.112 133.142 438.775 133.368 427.664C133.368 420.408 132.915 413.153 132.688 405.897C132.688 404.763 131.555 403.629 131.328 402.495C131.101 401.362 130.648 399.094 131.101 398.867C134.502 396.373 135.636 392.519 136.77 388.891C138.81 381.181 139.944 373.245 141.531 365.536C142.665 359.413 144.026 353.065 144.933 346.942C145.386 344.448 145.84 342.181 146.066 339.686C146.293 333.791 149.921 329.936 153.322 325.628C156.043 321.773 158.311 317.692 159.898 313.384C163.072 306.355 169.421 301.366 176.904 300.006C180.985 298.872 184.84 296.831 189.148 295.924C192.776 295.244 196.631 295.017 200.486 295.471C205.247 296.151 209.782 297.511 214.09 299.552C219.079 302.046 223.841 305.221 227.922 309.076C232.684 313.611 236.312 319.506 241.073 324.268C246.289 329.71 246.969 336.058 246.969 342.861C246.969 357.599 247.422 372.338 247.422 386.85C246.742 391.838 246.062 396.827 245.608 402.042ZM233.364 620.626C224.974 626.068 217.038 631.283 208.649 636.272C198.672 641.94 189.148 648.289 178.038 651.917C174.863 653.051 171.916 654.638 168.968 655.999C166.474 657.132 164.66 659.4 164.206 662.348C162.846 669.604 157.63 674.365 153.549 680.034C152.869 681.168 151.508 681.848 150.828 682.982C148.787 685.929 146.52 688.65 141.758 685.929C141.531 678.673 141.305 670.737 140.851 662.801L138.81 625.388C138.357 617.905 138.81 609.969 136.77 602.94C134.275 594.324 136.316 586.161 136.316 577.771C136.316 576.864 136.77 575.957 137.677 575.277C137.677 577.318 137.903 579.131 138.13 581.172C139.037 582.759 139.944 584.347 141.305 585.48C146.52 592.51 151.508 599.765 156.95 606.568C158.311 608.382 159.898 609.742 161.485 611.33C163.072 613.144 165.34 613.144 166.474 611.556C167.154 609.742 166.7 607.928 165.793 606.568C163.299 602.94 160.125 599.765 157.177 596.591C154.002 592.736 150.601 588.882 147.427 585.027C146.973 584.573 146.52 583.893 146.52 582.986C146.066 570.742 145.613 558.497 145.613 546.253C145.84 541.491 147.654 537.183 150.601 533.555C154.229 528.567 157.177 523.352 159.898 517.683C164.433 508.613 168.514 499.543 172.822 490.247H173.73C174.863 493.421 175.77 496.595 177.131 499.77C182.346 512.014 187.561 524.259 193.003 536.503C197.765 546.707 202.98 556.684 207.742 566.887C212.277 576.411 216.131 586.161 220.666 595.684C224.521 603.62 228.829 611.33 232.911 619.039C232.911 619.492 233.137 619.946 233.364 620.626Z" fill="white"/>
<path d="M181.222 397.96C195.734 396.373 210.019 395.466 224.077 400.908C227.705 402.268 231.333 403.175 234.961 403.855C237.682 404.309 237.909 405.669 237.455 407.937C233.827 423.355 230.426 438.774 227.025 454.193C225.664 460.542 224.757 466.891 223.85 473.24C223.624 474.6 223.85 476.188 221.356 475.281C221.129 475.281 219.542 477.095 219.769 477.775C222.49 486.391 225.664 495.008 228.385 503.624C230.426 510.653 231.56 517.909 234.054 524.711C239.269 538.09 245.165 551.014 250.607 564.166C254.008 572.328 257.636 580.265 261.037 588.427C262.851 592.962 264.665 597.271 266.479 601.805C266.932 602.712 266.932 603.62 266.479 604.3C260.81 612.463 255.142 620.399 249.473 628.335C248.793 629.242 247.886 629.922 246.979 630.602L245.618 627.655C243.351 623.12 241.083 618.358 238.816 613.823C233.601 603.62 228.159 593.869 223.397 583.666C218.182 572.782 213.42 561.445 208.205 550.334C205.257 543.985 201.629 537.636 198.228 531.514C195.28 526.072 192.106 520.857 189.385 515.188C186.437 509.066 183.943 502.944 181.449 496.595C180.542 494.554 179.861 492.513 178.954 490.246C178.728 489.792 178.501 489.112 178.728 488.659C182.129 482.536 180.768 475.734 180.768 469.385C180.542 456.687 180.315 444.216 180.315 431.518C180.315 420.635 180.768 409.297 181.222 397.96ZM98.9127 582.986V560.538C98.9127 554.189 98.9127 547.84 99.1394 541.491C99.3662 533.781 100.046 525.845 100.046 518.136C100.273 510.653 99.5929 502.944 99.8197 495.461C100.273 482.99 100.953 470.519 101.407 458.048C101.634 453.286 101.634 448.751 101.86 443.99C101.86 442.629 102.767 440.362 103.448 440.135C105.715 439.908 105.715 441.949 105.715 443.536C105.715 449.431 105.488 455.554 105.488 461.676C105.488 476.641 105.715 491.606 105.488 506.345C105.488 519.95 105.035 533.328 105.035 546.933C104.808 557.363 104.581 567.793 104.581 578.224C104.581 586.613 104.808 595.003 104.355 603.393C103.448 619.719 101.86 635.818 100.953 652.143C100.5 661.44 100.273 670.963 100.273 680.26C100.273 682.528 100.273 684.568 97.5522 684.795C94.8312 685.022 94.6045 682.528 94.6045 680.714C94.151 668.469 94.3777 656.225 95.5115 643.981C96.872 630.602 97.3254 616.998 98.0057 603.393C98.2324 596.59 98.0057 590.015 98.0057 583.212L98.9127 582.986ZM105.488 87.5429C106.395 102.508 107.302 117.02 108.436 131.759C109.57 145.817 110.93 160.102 111.837 174.16C112.518 184.591 113.198 194.794 113.424 205.225C113.651 217.923 113.425 230.62 113.651 243.318C113.878 251.028 114.558 258.51 114.558 266.22C114.558 273.929 113.424 281.185 112.744 288.668C112.744 289.801 112.291 290.708 111.611 291.615C110.704 292.522 109.57 292.976 108.436 292.976C107.756 292.976 106.849 291.389 107.076 290.482C107.529 285.72 108.436 281.185 108.663 276.423C108.89 268.487 108.89 260.324 108.89 252.388C108.89 244.679 108.436 236.969 108.209 229.26C107.756 215.428 107.529 201.597 106.849 187.992C105.942 171.439 104.355 154.887 103.674 138.334C102.767 122.462 102.314 106.59 102.087 90.4906C101.86 82.5544 102.314 74.6183 102.314 66.6821C102.314 66.2286 102.087 65.7751 102.314 65.3216C102.767 64.4146 103.448 63.5077 103.901 62.8274C104.355 63.7344 105.488 64.4146 105.488 65.3216V87.5429ZM112.744 325.627L111.384 339.232C110.25 350.57 108.89 361.907 107.983 373.244C107.076 384.582 106.395 396.373 105.488 407.937V408.617C104.581 410.884 104.808 414.286 101.407 413.832C97.7789 413.379 99.1394 410.204 99.3662 408.163C101.18 389.57 103.221 370.75 105.262 352.157C106.169 344.447 107.302 336.965 108.663 329.255C108.436 326.761 109.116 324.72 112.744 325.627ZM257.409 1217.2C263.078 1211.53 269.427 1211.3 276.002 1211.08C277.589 1211.08 278.95 1211.08 280.537 1210.85C283.485 1210.17 284.619 1211.98 285.299 1214.25C286.206 1216.74 284.165 1217.42 282.578 1218.1C277.363 1220.37 272.148 1222.41 266.932 1224.45C266.025 1224.68 265.118 1224.68 264.211 1224.23C261.944 1221.96 259.903 1219.47 257.409 1217.2ZM118.186 745.79C115.465 745.79 113.198 743.749 112.744 741.028C109.343 731.505 106.169 721.755 103.221 712.005C102.994 711.098 103.901 709.51 104.355 708.15C105.262 708.83 106.849 709.51 107.302 710.644C109.797 716.993 111.837 723.342 114.105 729.691C115.238 732.412 116.372 735.133 117.733 738.081C118.186 738.761 118.64 739.214 119.093 739.668C120 740.575 120.907 741.255 121.814 742.162L118.186 745.79ZM183.489 1291.57C180.542 1289.3 177.821 1286.81 175.326 1284.09C173.059 1281.37 174.873 1269.8 177.14 1267.08C178.047 1265.95 181.222 1267.31 182.356 1269.12C183.263 1270.71 184.396 1272.3 185.757 1273.88C186.891 1275.02 187.117 1276.83 186.21 1277.97C185.303 1280.46 184.623 1282.95 184.396 1285.68C184.17 1287.49 184.17 1289.08 184.396 1290.89L183.489 1291.57ZM104.581 42.4202C105.035 38.3387 105.488 34.484 106.395 30.6293C107.756 26.0944 109.343 21.5594 111.611 17.2512C112.971 14.9838 115.012 12.943 117.506 11.3558C118.413 10.6756 120.227 11.3558 121.587 11.3558C121.134 12.2628 120.907 13.85 120 14.3035C114.558 18.6117 113.651 24.7339 112.064 30.8561C110.93 34.7108 110.023 38.5655 108.663 42.4202C108.436 43.1004 106.849 43.7806 105.715 43.7806C105.262 44.0074 104.581 42.6469 104.581 42.4202ZM221.81 1258.01C215.914 1258.92 210.699 1256.88 205.711 1254.38C203.216 1253.02 200.495 1251.89 198.228 1250.3C195.28 1248.49 196.414 1245.54 196.187 1242.37C204.123 1249.17 212.06 1255.29 221.81 1258.01ZM311.828 1237.83L320.218 1231.26L323.392 1233.98C319.764 1241.01 315.003 1242.37 311.828 1237.83ZM287.566 1244.41H283.258V1231.94C283.258 1231.26 284.619 1230.35 285.752 1229.22C286.433 1234.66 286.886 1239.42 287.566 1244.41ZM296.183 1239.42L293.915 1231.03L294.369 1230.58C296.636 1232.39 298.677 1234.43 301.171 1236.24L296.183 1239.42ZM312.962 1230.8L310.695 1232.84L301.171 1224.68L301.625 1224L312.962 1230.8ZM336.317 1257.56L324.753 1259.15C324.753 1258.69 324.753 1258.47 324.526 1258.01C328.608 1258.01 332.009 1253.25 336.317 1257.56Z" fill="white"/>
</svg>
